<svg width="179" height="39" viewBox="0 0 179 39" fill="none" xmlns="http://www.w3.org/2000/svg">
<g filter="url(#filter0_i_99_51)">
<rect width="179" height="39" fill="#1E1E1E"/>
</g>
<path fill-rule="evenodd" clip-rule="evenodd" d="M2.4375 9.14062C2.4375 7.45788 3.80163 6.09375 5.48438 6.09375H33.5156C35.1984 6.09375 36.5625 7.45788 36.5625 9.14062V29.8594C36.5625 31.5421 35.1984 32.9062 33.5156 32.9062H5.48437C3.80163 32.9062 2.4375 31.5421 2.4375 29.8594V9.14062ZM4.875 9.14062V11.5781C4.875 11.9147 5.14783 12.1875 5.48438 12.1875H7.92188C8.25842 12.1875 8.53125 11.9147 8.53125 11.5781V9.14062C8.53125 8.80408 8.25842 8.53125 7.92188 8.53125H5.48438C5.14783 8.53125 4.875 8.80408 4.875 9.14062ZM31.0781 8.53125C30.7416 8.53125 30.4688 8.80408 30.4688 9.14062V11.5781C30.4688 11.9147 30.7416 12.1875 31.0781 12.1875H33.5156C33.8522 12.1875 34.125 11.9147 34.125 11.5781V9.14062C34.125 8.80408 33.8522 8.53125 33.5156 8.53125H31.0781ZM34.125 15.2344C34.125 14.8978 33.8522 14.625 33.5156 14.625H31.0781C30.7416 14.625 30.4688 14.8978 30.4688 15.2344V17.6719C30.4688 18.0084 30.7416 18.2812 31.0781 18.2812H33.5156C33.8522 18.2812 34.125 18.0084 34.125 17.6719V15.2344ZM34.125 21.3281C34.125 20.9916 33.8522 20.7188 33.5156 20.7188H31.0781C30.7416 20.7188 30.4688 20.9916 30.4688 21.3281V23.7656C30.4688 24.1022 30.7416 24.375 31.0781 24.375H33.5156C33.8522 24.375 34.125 24.1022 34.125 23.7656V21.3281ZM34.125 27.4219C34.125 27.0853 33.8522 26.8125 33.5156 26.8125H31.0781C30.7416 26.8125 30.4688 27.0853 30.4688 27.4219V29.8594C30.4688 30.1959 30.7416 30.4688 31.0781 30.4688H33.5156C33.8522 30.4688 34.125 30.1959 34.125 29.8594V27.4219ZM7.92188 30.4688C8.25842 30.4688 8.53125 30.1959 8.53125 29.8594V27.4219C8.53125 27.0853 8.25842 26.8125 7.92188 26.8125H5.48438C5.14783 26.8125 4.875 27.0853 4.875 27.4219V29.8594C4.875 30.1959 5.14783 30.4688 5.48437 30.4688H7.92188ZM5.48438 24.375H7.92188C8.25842 24.375 8.53125 24.1022 8.53125 23.7656V21.3281C8.53125 20.9916 8.25842 20.7188 7.92188 20.7188H5.48438C5.14783 20.7188 4.875 20.9916 4.875 21.3281V23.7656C4.875 24.1022 5.14783 24.375 5.48438 24.375ZM5.48438 18.2812H7.92188C8.25842 18.2812 8.53125 18.0084 8.53125 17.6719V15.2344C8.53125 14.8978 8.25842 14.625 7.92188 14.625H5.48438C5.14783 14.625 4.875 14.8978 4.875 15.2344V17.6719C4.875 18.0084 5.14783 18.2812 5.48438 18.2812ZM12.1875 18.2812C11.5144 18.2812 10.9688 18.8269 10.9688 19.5C10.9688 20.1731 11.5144 20.7188 12.1875 20.7188H26.8125C27.4856 20.7188 28.0312 20.1731 28.0312 19.5C28.0312 18.8269 27.4856 18.2812 26.8125 18.2812H12.1875Z" fill="#FFD700"/>
<path d="M65.2159 15.5795H60.9659C60.8447 14.8826 60.6212 14.2652 60.2955 13.7273C59.9697 13.1818 59.5644 12.7197 59.0795 12.3409C58.5947 11.9621 58.0417 11.678 57.4205 11.4886C56.8068 11.2917 56.1439 11.1932 55.4318 11.1932C54.1667 11.1932 53.0455 11.5114 52.0682 12.1477C51.0909 12.7765 50.3258 13.7008 49.7727 14.9205C49.2197 16.1326 48.9432 17.6136 48.9432 19.3636C48.9432 21.1439 49.2197 22.6439 49.7727 23.8636C50.3333 25.0758 51.0985 25.9924 52.0682 26.6136C53.0455 27.2273 54.1629 27.5341 55.4205 27.5341C56.1174 27.5341 56.7689 27.4432 57.375 27.2614C57.9886 27.072 58.5379 26.7955 59.0227 26.4318C59.5152 26.0682 59.928 25.6212 60.2614 25.0909C60.6023 24.5606 60.8371 23.9545 60.9659 23.2727L65.2159 23.2955C65.0568 24.4015 64.7121 25.4394 64.1818 26.4091C63.6591 27.3788 62.9735 28.2348 62.125 28.9773C61.2765 29.7121 60.2841 30.2879 59.1477 30.7045C58.0114 31.1136 56.75 31.3182 55.3636 31.3182C53.3182 31.3182 51.4924 30.8447 49.8864 29.8977C48.2803 28.9508 47.0152 27.5833 46.0909 25.7955C45.1667 24.0076 44.7045 21.8636 44.7045 19.3636C44.7045 16.8561 45.1705 14.7121 46.1023 12.9318C47.0341 11.1439 48.303 9.77651 49.9091 8.82954C51.5152 7.88257 53.3333 7.40909 55.3636 7.40909C56.6591 7.40909 57.8636 7.59091 58.9773 7.95454C60.0909 8.31818 61.0833 8.85227 61.9545 9.55682C62.8258 10.2538 63.5417 11.1098 64.1023 12.125C64.6705 13.1326 65.0417 14.2841 65.2159 15.5795ZM76.6222 31.3409C74.8722 31.3409 73.3608 30.9773 72.0881 30.25C70.8229 29.5152 69.8494 28.4773 69.1676 27.1364C68.4858 25.7879 68.1449 24.2008 68.1449 22.375C68.1449 20.5795 68.4858 19.0038 69.1676 17.6477C69.857 16.2841 70.8191 15.2235 72.054 14.4659C73.2888 13.7008 74.7396 13.3182 76.4062 13.3182C77.482 13.3182 78.4972 13.4924 79.4517 13.8409C80.4138 14.1818 81.2623 14.7121 81.9972 15.4318C82.7396 16.1515 83.3229 17.0682 83.7472 18.1818C84.1714 19.2879 84.3835 20.6061 84.3835 22.1364V23.3977H70.0767V20.625H80.4403C80.4328 19.8371 80.2623 19.1364 79.929 18.5227C79.5956 17.9015 79.1297 17.4129 78.5312 17.0568C77.9403 16.7008 77.2509 16.5227 76.4631 16.5227C75.6222 16.5227 74.8835 16.7273 74.2472 17.1364C73.6108 17.5379 73.1146 18.0682 72.7585 18.7273C72.41 19.3788 72.232 20.0947 72.2244 20.875V23.2955C72.2244 24.3106 72.41 25.1818 72.7812 25.9091C73.1525 26.6288 73.6714 27.1818 74.3381 27.5682C75.0047 27.947 75.785 28.1364 76.679 28.1364C77.2775 28.1364 77.8191 28.053 78.304 27.8864C78.7888 27.7121 79.2093 27.4583 79.5653 27.125C79.9214 26.7917 80.1903 26.3788 80.3722 25.8864L84.2131 26.3182C83.9706 27.3333 83.5085 28.2197 82.8267 28.9773C82.1525 29.7273 81.2888 30.3106 80.2358 30.7273C79.1828 31.1364 77.9782 31.3409 76.6222 31.3409ZM91.9773 7.72727V31H87.8636V7.72727H91.9773ZM100.321 7.72727V31H96.2074V7.72727H100.321ZM115.676 23.6591V13.5455H119.79V31H115.801V27.8977H115.619C115.225 28.875 114.578 29.6742 113.676 30.2955C112.782 30.9167 111.68 31.2273 110.369 31.2273C109.225 31.2273 108.214 30.9735 107.335 30.4659C106.464 29.9508 105.782 29.2045 105.29 28.2273C104.797 27.2424 104.551 26.053 104.551 24.6591V13.5455H108.665V24.0227C108.665 25.1288 108.968 26.0076 109.574 26.6591C110.18 27.3106 110.975 27.6364 111.96 27.6364C112.566 27.6364 113.153 27.4886 113.722 27.1932C114.29 26.8977 114.756 26.4583 115.119 25.875C115.491 25.2841 115.676 24.5455 115.676 23.6591ZM128.134 7.72727V31H124.02V7.72727H128.134ZM139.977 31.3409C138.273 31.3409 136.795 30.9659 135.545 30.2159C134.295 29.4659 133.326 28.4167 132.636 27.0682C131.955 25.7197 131.614 24.1439 131.614 22.3409C131.614 20.5379 131.955 18.9583 132.636 17.6023C133.326 16.2462 134.295 15.1932 135.545 14.4432C136.795 13.6932 138.273 13.3182 139.977 13.3182C141.682 13.3182 143.159 13.6932 144.409 14.4432C145.659 15.1932 146.625 16.2462 147.307 17.6023C147.996 18.9583 148.341 20.5379 148.341 22.3409C148.341 24.1439 147.996 25.7197 147.307 27.0682C146.625 28.4167 145.659 29.4659 144.409 30.2159C143.159 30.9659 141.682 31.3409 139.977 31.3409ZM140 28.0455C140.924 28.0455 141.697 27.7917 142.318 27.2841C142.939 26.7689 143.402 26.0795 143.705 25.2159C144.015 24.3523 144.17 23.3902 144.17 22.3295C144.17 21.2614 144.015 20.2955 143.705 19.4318C143.402 18.5606 142.939 17.8674 142.318 17.3523C141.697 16.8371 140.924 16.5795 140 16.5795C139.053 16.5795 138.265 16.8371 137.636 17.3523C137.015 17.8674 136.549 18.5606 136.239 19.4318C135.936 20.2955 135.784 21.2614 135.784 22.3295C135.784 23.3902 135.936 24.3523 136.239 25.2159C136.549 26.0795 137.015 26.7689 137.636 27.2841C138.265 27.7917 139.053 28.0455 140 28.0455ZM151.832 31V13.5455H155.946V31H151.832ZM153.901 11.0682C153.249 11.0682 152.688 10.8523 152.219 10.4205C151.749 9.98106 151.514 9.45454 151.514 8.84091C151.514 8.2197 151.749 7.69318 152.219 7.26136C152.688 6.82197 153.249 6.60227 153.901 6.60227C154.56 6.60227 155.12 6.82197 155.582 7.26136C156.052 7.69318 156.287 8.2197 156.287 8.84091C156.287 9.45454 156.052 9.98106 155.582 10.4205C155.12 10.8523 154.56 11.0682 153.901 11.0682ZM166.653 31.3068C165.282 31.3068 164.055 30.9545 162.972 30.25C161.888 29.5455 161.032 28.5227 160.403 27.1818C159.775 25.8409 159.46 24.2121 159.46 22.2955C159.46 20.3561 159.778 18.7197 160.415 17.3864C161.059 16.0455 161.926 15.0341 163.017 14.3523C164.108 13.6629 165.324 13.3182 166.665 13.3182C167.688 13.3182 168.528 13.4924 169.188 13.8409C169.847 14.1818 170.369 14.5947 170.756 15.0795C171.142 15.5568 171.441 16.0076 171.653 16.4318H171.824V7.72727H175.949V31H171.903V28.25H171.653C171.441 28.6742 171.134 29.125 170.733 29.6023C170.331 30.072 169.801 30.4735 169.142 30.8068C168.483 31.1402 167.653 31.3068 166.653 31.3068ZM167.801 27.9318C168.672 27.9318 169.415 27.697 170.028 27.2273C170.642 26.75 171.108 26.0871 171.426 25.2386C171.744 24.3902 171.903 23.4015 171.903 22.2727C171.903 21.1439 171.744 20.1629 171.426 19.3295C171.116 18.4962 170.653 17.8485 170.04 17.3864C169.434 16.9242 168.688 16.6932 167.801 16.6932C166.884 16.6932 166.119 16.9318 165.506 17.4091C164.892 17.8864 164.43 18.5455 164.119 19.3864C163.809 20.2273 163.653 21.1894 163.653 22.2727C163.653 23.3636 163.809 24.3371 164.119 25.1932C164.438 26.0417 164.903 26.7121 165.517 27.2045C166.138 27.6894 166.9 27.9318 167.801 27.9318Z" fill="white"/>
<defs>
<filter id="filter0_i_99_51" x="0" y="0" width="179" height="43" filterUnits="userSpaceOnUse" color-interpolation-filters="sRGB">
<feFlood flood-opacity="0" result="BackgroundImageFix"/>
<feBlend mode="normal" in="SourceGraphic" in2="BackgroundImageFix" result="shape"/>
<feColorMatrix in="SourceAlpha" type="matrix" values="0 0 0 0 0 0 0 0 0 0 0 0 0 0 0 0 0 0 127 0" result="hardAlpha"/>
<feOffset dy="4"/>
<feGaussianBlur stdDeviation="2"/>
<feComposite in2="hardAlpha" operator="arithmetic" k2="-1" k3="1"/>
<feColorMatrix type="matrix" values="0 0 0 0 0 0 0 0 0 0 0 0 0 0 0 0 0 0 0.25 0"/>
<feBlend mode="normal" in2="shape" result="effect1_innerShadow_99_51"/>
</filter>
</defs>
</svg>
