<svg width="39" height="39" viewBox="0 0 39 39" fill="none" xmlns="http://www.w3.org/2000/svg">
<path fill-rule="evenodd" clip-rule="evenodd" d="M2.4375 9.14062C2.4375 7.45788 3.80163 6.09375 5.48438 6.09375H33.5156C35.1984 6.09375 36.5625 7.45788 36.5625 9.14062V29.8594C36.5625 31.5421 35.1984 32.9062 33.5156 32.9062H5.48437C3.80163 32.9062 2.4375 31.5421 2.4375 29.8594V9.14062ZM4.875 9.14062V11.5781C4.875 11.9147 5.14783 12.1875 5.48438 12.1875H7.92188C8.25842 12.1875 8.53125 11.9147 8.53125 11.5781V9.14062C8.53125 8.80408 8.25842 8.53125 7.92188 8.53125H5.48438C5.14783 8.53125 4.875 8.80408 4.875 9.14062ZM31.0781 8.53125C30.7416 8.53125 30.4688 8.80408 30.4688 9.14062V11.5781C30.4688 11.9147 30.7416 12.1875 31.0781 12.1875H33.5156C33.8522 12.1875 34.125 11.9147 34.125 11.5781V9.14062C34.125 8.80408 33.8522 8.53125 33.5156 8.53125H31.0781ZM34.125 15.2344C34.125 14.8978 33.8522 14.625 33.5156 14.625H31.0781C30.7416 14.625 30.4688 14.8978 30.4688 15.2344V17.6719C30.4688 18.0084 30.7416 18.2812 31.0781 18.2812H33.5156C33.8522 18.2812 34.125 18.0084 34.125 17.6719V15.2344ZM34.125 21.3281C34.125 20.9916 33.8522 20.7188 33.5156 20.7188H31.0781C30.7416 20.7188 30.4688 20.9916 30.4688 21.3281V23.7656C30.4688 24.1022 30.7416 24.375 31.0781 24.375H33.5156C33.8522 24.375 34.125 24.1022 34.125 23.7656V21.3281ZM34.125 27.4219C34.125 27.0853 33.8522 26.8125 33.5156 26.8125H31.0781C30.7416 26.8125 30.4688 27.0853 30.4688 27.4219V29.8594C30.4688 30.1959 30.7416 30.4688 31.0781 30.4688H33.5156C33.8522 30.4688 34.125 30.1959 34.125 29.8594V27.4219ZM7.92188 30.4688C8.25842 30.4688 8.53125 30.1959 8.53125 29.8594V27.4219C8.53125 27.0853 8.25842 26.8125 7.92188 26.8125H5.48438C5.14783 26.8125 4.875 27.0853 4.875 27.4219V29.8594C4.875 30.1959 5.14783 30.4688 5.48437 30.4688H7.92188ZM5.48438 24.375H7.92188C8.25842 24.375 8.53125 24.1022 8.53125 23.7656V21.3281C8.53125 20.9916 8.25842 20.7188 7.92188 20.7188H5.48438C5.14783 20.7188 4.875 20.9916 4.875 21.3281V23.7656C4.875 24.1022 5.14783 24.375 5.48438 24.375ZM5.48438 18.2812H7.92188C8.25842 18.2812 8.53125 18.0084 8.53125 17.6719V15.2344C8.53125 14.8978 8.25842 14.625 7.92188 14.625H5.48438C5.14783 14.625 4.875 14.8978 4.875 15.2344V17.6719C4.875 18.0084 5.14783 18.2812 5.48438 18.2812ZM12.1875 18.2812C11.5144 18.2812 10.9688 18.8269 10.9688 19.5C10.9688 20.1731 11.5144 20.7188 12.1875 20.7188H26.8125C27.4856 20.7188 28.0312 20.1731 28.0312 19.5C28.0312 18.8269 27.4856 18.2812 26.8125 18.2812H12.1875Z" fill="#FFD700"/>
</svg>
